# File created by Blade
# Date/Time:  Tue Sep 30 19:35:54 2014
#---------------------------------------------------------
:version 1.10
:name HOM
:units
  mass 1.0
  length 1.000000
  angle deg
:documentation
     Acclaim Skeleton File
:root
   axis xyz
   order TX TY TZ RX RY RZ
   position 0.000000 0.000000 0.000000
   orientation 0 0 0
:bonedata
   begin
      id 1
      name Spine_dum
      direction 0.000000 1.000000 0.000000
      length 3.241213
      axis 0.0 0.0 0.0 xyz
   end
   begin
      id 2
      name LeftUpLeg_dum
      direction 1.000000 0.000000 0.000000
      length 3.434019
      axis 0.0 0.0 0.0 xyz
   end
   begin
      id 3
      name RightUpLeg_dum
      direction -1.000000 0.000000 0.000000
      length 3.434019
      axis 0.0 0.0 0.0 xyz
   end
   begin
      id 4
      name Spine
      direction 0.000000 1.000000 0.000000
      length 0.000000
      axis 0.0 0.0 0.0 xyz
      dof rx ry rz
   end
   begin
      id 5
      name Spine_dum1
      direction 0.000000 1.000000 0.000000
      length 18.382958
      axis 0.0 0.0 0.0 xyz
   end
   begin
      id 6
      name Spine_dum2
      direction 0.000000 1.000000 0.000000
      length 12.828261
      axis 0.0 0.0 0.0 xyz
   end
   begin
      id 7
      name Spine_dum3
      direction 0.000000 1.000000 0.000000
      length 12.828261
      axis 0.0 0.0 0.0 xyz
   end
   begin
      id 8
      name Head
      direction 0.000000 1.000000 0.000000
      length 4.527550
      axis 0.0 0.0 0.0 xyz
      dof rx ry rz
   end
   begin
      id 9
      name LeftShoulder
      direction 1.000000 0.000000 0.000000
      length 7.748055
      axis 0.0 0.0 -90.0 xyz
      dof rx ry rz
   end
   begin
      id 10
      name LeftArm
      direction 1.000000 0.000000 0.000000
      length 10.635614
      axis 0.0 0.0 -90.0 xyz
      dof rx ry rz
   end
   begin
      id 11
      name LeftForeArm
      direction 1.000000 0.000000 0.000000
      length 8.346755
      axis 0.0 0.0 -90.0 xyz
      dof ry rz rx
   end
   begin
      id 12
      name LeftHand
      direction 0.000000 0.000000 0.000000
      length 0.000000
      axis 0.0 0.0 -90.0 xyz
      dof rx ry rz
   end
   begin
      id 13
      name LeftHand_dum1
      direction 0.000000 0.000000 0.000000
      length 0.000000
      axis 0.0 0.0 -90.0 xyz
   end
   begin
      id 14
      name LeftHand_dum2
      direction 1.000000 0.000000 0.000000
      length 3.937000
      axis 0.0 0.0 -90.0 xyz
   end
   begin
      id 15
      name LeftHandThumb1
      direction 0.000000 0.000000 1.000000
      length 3.937000
      axis 0.0 0.0 -90.0 xyz
      dof rx rz ry
   end
   begin
      id 16
      name RightShoulder
      direction -1.000000 0.000000 0.000000
      length 7.748055
      axis 0.0 0.0 90.0 xyz
      dof rx ry rz
   end
   begin
      id 17
      name RightArm
      direction -1.000000 0.000000 0.000000
      length 10.635614
      axis 0.0 0.0 90.0 xyz
      dof rx ry rz
   end
   begin
      id 18
      name RightForeArm
      direction -1.000000 0.000000 0.000000
      length 8.346755
      axis 0.0 0.0 90.0 xyz
      dof ry rz rx
   end
   begin
      id 19
      name RightHand
      direction 0.000000 0.000000 0.000000
      length 0.000000
      axis 0.0 0.0 90.0 xyz
      dof rx ry rz
   end
   begin
      id 20
      name RightHand_dum1
      direction 0.000000 0.000000 0.000000
      length 0.000000
      axis 0.0 0.0 90.0 xyz
   end
   begin
      id 21
      name RightHand_dum2
      direction -1.000000 0.000000 0.000000
      length 3.937000
      axis 0.0 0.0 90.0 xyz
   end
   begin
      id 22
      name RightHandThumb1
      direction 0.000000 0.000000 1.000000
      length 3.937000
      axis 0.0 0.0 90.0 xyz
      dof rx rz ry
   end
   begin
      id 23
      name LeftUpLeg
      direction 0.000000 -1.000000 0.000000
      length 15.713025
      axis 0.0 0.0 0.0 xyz
      dof rx ry rz
   end
   begin
      id 24
      name LeftLeg
      direction 0.000000 -1.000000 0.000000
      length 14.435119
      axis 0.0 0.0 0.0 xyz
      dof rx ry rz
   end
   begin
      id 25
      name LeftFoot
      direction 0.000000 -0.258819 0.965926
      length 4.938895
      axis 15.0 0.0 0.0 xyz
      dof rx ry rz
   end
   begin
      id 26
      name LeftToeBase
      direction 0.000000 0.000000 1.000000
      length 2.952750
      axis 0.0 0.0 0.0 xyz
      dof rx ry rz
   end
   begin
      id 27
      name RightUpLeg
      direction 0.000000 -1.000000 0.000000
      length 15.713025
      axis 0.0 0.0 0.0 xyz
      dof rx ry rz
   end
   begin
      id 28
      name RightLeg
      direction 0.000000 -1.000000 0.000000
      length 14.435119
      axis 0.0 0.0 0.0 xyz
      dof rx ry rz
   end
   begin
      id 29
      name RightFoot
      direction 0.000000 -0.258819 0.965926
      length 4.938895
      axis 15.0 0.0 0.0 xyz
      dof rx ry rz
   end
   begin
      id 30
      name RightToeBase
      direction 0.000000 0.000000 1.000000
      length 2.952750
      axis 0.0 0.0 0.0 xyz
      dof rx ry rz
   end
:hierarchy
   begin
      root Spine_dum LeftUpLeg_dum RightUpLeg_dum
      Spine_dum Spine
      LeftUpLeg_dum LeftUpLeg
      RightUpLeg_dum RightUpLeg
      Spine Spine_dum1 Spine_dum2 Spine_dum3
      Spine_dum1 Head
      Spine_dum2 LeftShoulder
      Spine_dum3 RightShoulder
      LeftShoulder LeftArm
      LeftArm LeftForeArm
      LeftForeArm LeftHand
      LeftHand LeftHand_dum1 LeftHand_dum2
      LeftHand_dum1 LeftHandThumb1
      RightShoulder RightArm
      RightArm RightForeArm
      RightForeArm RightHand
      RightHand RightHand_dum1 RightHand_dum2
      RightHand_dum1 RightHandThumb1
      LeftUpLeg LeftLeg
      LeftLeg LeftFoot
      LeftFoot LeftToeBase
      RightUpLeg RightLeg
      RightLeg RightFoot
      RightFoot RightToeBase
   end

# File created by Blade
# Date/Time:  Tue Sep 23 19:15:59 2014
# Frame Rate: 120.000 fps
#------------------------------------------------------
:FULLY-SPECIFIED
:DEGREES
694
root 2.836284 32.023467 -7.033623 34.548672 -28.037995 -16.313055
Spine -18.414547 -14.475018 22.040089
Head -13.811078 5.284358 1.897274
LeftShoulder 1.502998 40.923736 20.944656
LeftArm 79.817279 12.698287 -51.097706
LeftForeArm 48.395114 -0.000000 37.187034
LeftHand 26.560501 -0.000000 32.344679
LeftHandThumb1 -26.253704 0.000000 33.147579
RightShoulder -1.508824 -46.612759 -18.941591
RightArm 71.274226 -13.750897 48.152542
RightForeArm 39.190427 0.000000 78.863058
RightHand -0.095543 0.000000 25.804873
RightHandThumb1 -24.326973 -0.000000 -32.862282
LeftUpLeg -43.872895 3.571634 3.630209
LeftLeg 29.256698 -0.000000 -0.000000
LeftFoot -22.456023 16.396995 2.269773
LeftToeBase 5.643735 -0.000000 -0.000000
RightUpLeg -150.134394 5.261834 15.315402
RightLeg 111.861370 -0.000000 -0.000000
RightFoot 43.241347 -10.785947 11.005369
RightToeBase 50.080346 -0.000000 -0.000000
695
root 2.830207 32.017049 -7.061826 34.402385 -27.970789 -16.126963
Spine -18.351625 -15.134780 22.098982
Head -13.990267 5.626540 1.718984
LeftShoulder 2.082308 40.813831 21.214328
LeftArm 80.457101 12.321388 -50.425367
LeftForeArm 45.384277 0.000000 35.175377
LeftHand 27.988228 -0.000000 31.265202
LeftHandThumb1 -26.253704 0.000000 33.147579
RightShoulder -1.541761 -46.467750 -18.915415
RightArm 71.836895 -13.823768 47.843740
RightForeArm 38.466144 0.000000 78.819840
RightHand 0.189190 -0.000000 25.171172
RightHandThumb1 -24.326973 -0.000000 -32.862282
LeftUpLeg -43.820377 2.267193 4.278075
LeftLeg 29.354598 -0.000000 -0.000000
LeftFoot -23.224143 14.442643 1.295496
LeftToeBase 5.778514 -0.000000 -0.000000
RightUpLeg -150.376818 5.888756 15.426596
RightLeg 111.599999 -0.000000 -0.000000
RightFoot 43.344987 -10.856378 11.467882
RightToeBase 49.959844 -0.000000 -0.000000
696
root 2.813291 32.011406 -7.105113 34.400148 -28.099943 -16.038726
Spine -18.304238 -15.576053 22.031534
Head -14.134488 5.951361 1.707327
LeftShoulder 2.636438 40.768067 21.526818
LeftArm 80.960824 11.870532 -50.040946
LeftForeArm 40.806421 -0.000000 33.351369
LeftHand 32.066991 -0.000000 27.833963
LeftHandThumb1 -26.253704 0.000000 33.147579
RightShoulder -1.541889 -46.371876 -18.841377
RightArm 72.443442 -13.845097 47.492925
RightForeArm 37.580369 -0.000000 78.743115
RightHand 0.029152 -0.000000 24.823414
RightHandThumb1 -24.326973 -0.000000 -32.862282
LeftUpLeg -43.864030 1.150080 4.958887
LeftLeg 29.530624 -0.000000 -0.000000
LeftFoot -24.668264 11.556837 -0.400236
LeftToeBase 4.813864 -0.000000 -0.000000
RightUpLeg -150.585786 6.796953 15.450160
RightLeg 111.216269 -0.000000 -0.000000
RightFoot 43.462756 -11.093308 11.906342
RightToeBase 49.783066 -0.000000 -0.000000
697
root 2.807574 32.001751 -7.138887 34.387392 -28.219456 -15.826263
Spine -18.324654 -16.000300 21.910694
Head -14.320665 6.124333 1.647484
LeftShoulder 3.125323 40.590151 21.780260
LeftArm 81.569568 11.563937 -49.417237
LeftForeArm 38.073863 -0.000000 31.358661
LeftHand 34.342240 -0.000000 26.001691
LeftHandThumb1 -26.253704 0.000000 33.147579
RightShoulder -1.598550 -46.361185 -18.810751
RightArm 73.154938 -13.839583 47.022787
RightForeArm 37.134071 0.000000 78.624720
RightHand -0.087182 -0.000000 25.470624
RightHandThumb1 -24.326973 -0.000000 -32.862282
LeftUpLeg -43.933703 -0.002940 5.461510
LeftLeg 29.477668 -0.000000 -0.000000
LeftFoot -24.737837 9.904390 0.097563
LeftToeBase 4.166982 -0.000000 -0.000000
RightUpLeg -150.871529 7.611794 15.400153
RightLeg 110.838861 -0.000000 -0.000000
RightFoot 43.499758 -11.472193 12.372081
RightToeBase 49.714420 -0.000000 -0.000000
698
root 2.803664 31.986428 -7.165013 34.316322 -28.341126 -15.559300
Spine -18.348386 -16.420411 21.751279
Head -14.469985 6.245049 1.543388
LeftShoulder 3.639544 40.418385 22.026087
LeftArm 82.101213 11.257605 -48.793983
LeftForeArm 35.987542 -0.000000 29.617707
LeftHand 36.061111 -0.000000 24.350392
LeftHandThumb1 -26.253704 0.000000 33.147579
RightShoulder -1.539684 -46.301089 -18.967163
RightArm 73.790504 -13.895664 46.606466
RightForeArm 36.728542 -0.000000 78.473446
RightHand -0.232630 -0.000000 25.619279
RightHandThumb1 -24.326973 -0.000000 -32.862282
LeftUpLeg -44.001855 -1.140532 5.919549
LeftLeg 29.490160 -0.000000 -0.000000
LeftFoot -25.109177 7.904040 -0.753578
LeftToeBase 5.484907 -0.000000 -0.000000
RightUpLeg -151.126363 8.431066 15.376902
RightLeg 110.480149 -0.000000 -0.000000
RightFoot 43.406288 -12.136851 12.769012
RightToeBase 49.700212 -0.000000 -0.000000
699
root 2.803001 31.970210 -7.190331 34.257227 -28.519538 -15.327255
Spine -18.332494 -16.777781 21.570475
Head -14.608090 6.430665 1.470295
LeftShoulder 3.997975 40.301642 22.104851
LeftArm 82.761091 10.901668 -48.035754
LeftForeArm 34.798059 -0.000000 27.866444
LeftHand 37.397734 -0.000000 23.205133
LeftHandThumb1 -26.253704 0.000000 33.147579
RightShoulder -1.384167 -46.149864 -19.244889
RightArm 74.374165 -14.030152 46.121314
RightForeArm 36.716965 0.000000 78.289998
RightHand -0.318759 -0.000000 26.039214
RightHandThumb1 -24.326973 -0.000000 -32.862282
LeftUpLeg -44.071888 -2.145971 6.339031
LeftLeg 29.552147 -0.000000 -0.000000
LeftFoot -25.387023 5.508243 -1.989577
LeftToeBase 6.398442 -0.000000 -0.000000
RightUpLeg -151.318361 9.265449 15.310202
RightLeg 110.063955 -0.000000 -0.000000
RightFoot 43.303393 -12.793330 13.166717
RightToeBase 49.610827 -0.000000 -0.000000
700
root 2.801317 31.950887 -7.212524 34.203098 -28.773698 -15.166416
Spine -18.238903 -17.023183 21.367844
Head -14.829804 6.614967 1.382980
LeftShoulder 4.255617 40.198636 22.116839
LeftArm 83.474336 10.563090 -47.261622
LeftForeArm 34.275600 -0.000000 26.170852
LeftHand 38.291392 -0.000000 22.259746
LeftHandThumb1 -26.253704 0.000000 33.147579
RightShoulder -1.190433 -45.923956 -19.602803
RightArm 74.849488 -14.234956 45.735121
RightForeArm 36.977044 0.000000 78.086840
RightHand -0.406896 -0.000000 26.495901
RightHandThumb1 -24.326973 -0.000000 -32.862282
LeftUpLeg -44.135964 -2.902438 6.660061
LeftLeg 29.666003 -0.000000 -0.000000
LeftFoot -25.462473 3.823174 -2.299131
LeftToeBase 7.612424 -0.000000 -0.000000
RightUpLeg -151.417178 10.156204 15.231310
RightLeg 109.625909 -0.000000 -0.000000
RightFoot 43.123895 -13.543729 13.632245
RightToeBase 49.539372 -0.000000 -0.000000
701
root 2.798894 31.931321 -7.227438 34.086130 -29.046209 -15.050618
Spine -18.059563 -17.219380 21.163870
Head -14.999234 6.787645 1.281546
LeftShoulder 4.581483 40.218564 22.154981
LeftArm 84.200055 10.142013 -46.585864
LeftForeArm 34.531075 0.000000 24.562309
LeftHand 38.985924 -0.000000 21.710668
LeftHandThumb1 -26.253704 0.000000 33.147579
RightShoulder -0.915892 -45.721975 -20.027491
RightArm 75.228655 -14.424809 45.409696
RightForeArm 36.657597 -0.000000 77.994307
RightHand -0.264458 -0.000000 26.363454
RightHandThumb1 -24.326973 -0.000000 -32.862282
LeftUpLeg -44.115934 -3.539668 6.927815
LeftLeg 29.738925 -0.000000 -0.000000
LeftFoot -25.316715 3.020071 -2.091190
LeftToeBase 7.746575 -0.000000 -0.000000
RightUpLeg -151.386751 11.026392 15.217687
RightLeg 109.193676 -0.000000 -0.000000
RightFoot 42.948074 -14.184068 14.001392
RightToeBase 49.417992 -0.000000 -0.000000
702
root 2.796663 31.913118 -7.234353 33.878803 -29.285429 -14.986573
Spine -17.763346 -17.478814 21.036898
Head -15.229641 6.975898 1.073766
LeftShoulder 4.886838 40.028215 22.122189
LeftArm 84.584018 9.854598 -46.381927
LeftForeArm 34.526413 -0.000000 23.100601
LeftHand 40.159411 0.000000 20.526188
LeftHandThumb1 -26.253704 0.000000 33.147579
RightShoulder -0.515443 -45.502184 -20.572536
RightArm 75.517335 -14.606425 45.205345
RightForeArm 36.293342 -0.000000 77.972583
RightHand 0.016708 0.000000 26.126310
RightHandThumb1 -24.326973 -0.000000 -32.862282
LeftUpLeg -43.965995 -4.002361 7.113440
LeftLeg 29.756461 -0.000000 -0.000000
LeftFoot -24.670782 2.698114 -2.126049
LeftToeBase 7.470653 -0.000000 -0.000000
RightUpLeg -151.224541 11.797414 15.294000
RightLeg 108.807209 -0.000000 -0.000000
RightFoot 42.766093 -14.758112 14.365679
RightToeBase 49.285126 -0.000000 -0.000000
